<?xml version="1.0" encoding="UTF-8"?>
<svg width="526px" height="99px" viewBox="0 0 526 99" version="1.1" xmlns="http://www.w3.org/2000/svg" xmlns:xlink="http://www.w3.org/1999/xlink">
    <!-- Generator: Sketch 40.1 (33804) - http://www.bohemiancoding.com/sketch -->
    <title>QWIKLABS logo (white &amp; yellow)</title>
    <desc>Created with Sketch.</desc>
    <defs></defs>
    <g id="Logo" stroke="none" stroke-width="1" fill="none" fill-rule="evenodd">
        <g id="QWIKLABS-logo-(white-&amp;-yellow)">
            <path d="M129.9,45.775 C129.9,48.775015 130.387495,51.6249865 131.3625,54.325 C132.337505,57.0250135 133.724991,59.4124896 135.525,61.4875 C137.325009,63.5625104 139.537487,65.2124939 142.1625,66.4375 C144.787513,67.6625061 147.749983,68.275 151.05,68.275 C154.300016,68.275 157.237487,67.6625061 159.8625,66.4375 C162.487513,65.2124939 164.712491,63.5625104 166.5375,61.4875 C168.362509,59.4124896 169.774995,57.0250135 170.775,54.325 C171.775005,51.6249865 172.275,48.775015 172.275,45.775 C172.275,42.774985 171.775005,39.9250135 170.775,37.225 C169.774995,34.5249865 168.362509,32.1375104 166.5375,30.0625 C164.712491,27.9874896 162.487513,26.3375061 159.8625,25.1125 C157.237487,23.8874939 154.300016,23.275 151.05,23.275 C147.749983,23.275 144.787513,23.8874939 142.1625,25.1125 C139.537487,26.3375061 137.325009,27.9874896 135.525,30.0625 C133.724991,32.1375104 132.337505,34.5249865 131.3625,37.225 C130.387495,39.9250135 129.9,42.774985 129.9,45.775 L129.9,45.775 Z M181.425,73 L151.05,73 C147.199981,73 143.637516,72.3250068 140.3625,70.975 C137.087484,69.6249933 134.250012,67.7375121 131.85,65.3125 C129.449988,62.8874879 127.575007,60.0125166 126.225,56.6875 C124.874993,53.3624834 124.2,49.7250198 124.2,45.775 C124.2,41.8249803 124.874993,38.1875166 126.225,34.8625 C127.575007,31.5374834 129.449988,28.6625121 131.85,26.2375 C134.250012,23.8124879 137.087484,21.9250067 140.3625,20.575 C143.637516,19.2249933 147.199981,18.55 151.05,18.55 C154.850019,18.55 158.387484,19.2249933 161.6625,20.575 C164.937516,21.9250067 167.774988,23.8124879 170.175,26.2375 C172.575012,28.6625121 174.449993,31.5374834 175.8,34.8625 C177.150007,38.1875166 177.825,41.8249803 177.825,45.775 C177.825,50.4750235 176.78751,54.7624806 174.7125,58.6375 C172.63749,62.5125194 169.525021,65.649988 165.375,68.05 L165.375,68.2 L181.425,68.2 L181.425,73 Z M203.1,65.575 L203.25,65.575 L216.525,19.9 L222.975,19.9 L236.25,65.575 L236.4,65.575 L249.375,19.9 L255.075,19.9 L239.4,73 L233.1,73 L219.75,27.4 L219.6,27.4 L206.25,73 L199.95,73 L184.275,19.9 L189.975,19.9 L203.1,65.575 Z M270.575,73 L265.175,73 L265.175,19.9 L270.575,19.9 L270.575,73 Z M291.075,43.75 L291.15,43.75 L316.425,19.9 L324.15,19.9 L297.375,43.975 L325.65,73 L317.7,73 L291.15,44.725 L291.075,44.725 L291.075,73 L285.675,73 L285.675,19.9 L291.075,19.9 L291.075,43.75 Z M334.2,73 L334.2,19.9 L347.1,19.9 L347.1,61.825 L367.65,61.825 L367.65,73 L334.2,73 Z M416.65,73 L412.525,62.575 L391.975,62.575 L388.075,73 L374.125,73 L396.4,19.9 L408.85,19.9 L430.9,73 L416.65,73 Z M402.4,34.075 L395.65,52.3 L409,52.3 L402.4,34.075 Z M479.725,57.55 C479.725,60.4500145 479.150006,62.8874901 478,64.8625 C476.849994,66.8375099 475.325009,68.424994 473.425,69.625 C471.52499,70.825006 469.362512,71.6874974 466.9375,72.2125 C464.512488,72.7375026 462.025013,73 459.475,73 L438.325,73 L438.325,19.9 L459.475,19.9 C461.52501,19.9 463.624989,20.1124979 465.775,20.5375 C467.925011,20.9625021 469.874991,21.6874949 471.625,22.7125 C473.375009,23.7375051 474.799994,25.1249912 475.9,26.875 C477.000005,28.6250088 477.55,30.8499865 477.55,33.55 C477.55,36.5000148 476.750008,38.9374904 475.15,40.8625 C473.549992,42.7875096 471.450013,44.1749957 468.85,45.025 L468.85,45.175 C470.350007,45.4250012 471.762493,45.8874966 473.0875,46.5625 C474.412507,47.2375034 475.562495,48.0999948 476.5375,49.15 C477.512505,50.2000053 478.287497,51.424993 478.8625,52.825 C479.437503,54.225007 479.725,55.7999912 479.725,57.55 L479.725,57.55 Z M465.175,35.275 C465.175,33.474991 464.487507,32.1625041 463.1125,31.3375 C461.737493,30.5124959 459.700013,30.1 457,30.1 L450.7,30.1 L450.7,41.05 L457.6,41.05 C460.000012,41.05 461.862493,40.5625049 463.1875,39.5875 C464.512507,38.6124951 465.175,37.1750095 465.175,35.275 L465.175,35.275 Z M466.9,56.35 C466.9,54.149989 466.075008,52.6250043 464.425,51.775 C462.774992,50.9249957 460.575014,50.5 457.825,50.5 L450.7,50.5 L450.7,62.65 L457.9,62.65 C458.900005,62.65 459.937495,62.5625009 461.0125,62.3875 C462.087505,62.2124991 463.062496,61.9000023 463.9375,61.45 C464.812504,60.9999978 465.524997,60.3625041 466.075,59.5375 C466.625003,58.7124959 466.9,57.6500065 466.9,56.35 L466.9,56.35 Z M517.25,33.7 C516.149994,32.299993 514.712509,31.1875041 512.9375,30.3625 C511.162491,29.5374959 509.450008,29.125 507.8,29.125 C506.949996,29.125 506.087504,29.1999992 505.2125,29.35 C504.337496,29.5000007 503.550004,29.7874979 502.85,30.2125 C502.149996,30.6375021 501.562502,31.1874966 501.0875,31.8625 C500.612498,32.5375034 500.375,33.3999948 500.375,34.45 C500.375,35.3500045 500.562498,36.099997 500.9375,36.7 C501.312502,37.300003 501.862496,37.8249978 502.5875,38.275 C503.312504,38.7250023 504.174995,39.1374981 505.175,39.5125 C506.175005,39.8875019 507.299994,40.274998 508.55,40.675 C510.350009,41.275003 512.22499,41.9374964 514.175,42.6625 C516.12501,43.3875036 517.899992,44.349994 519.5,45.55 C521.100008,46.750006 522.424995,48.2374911 523.475,50.0125 C524.525005,51.7875089 525.05,53.9999868 525.05,56.65 C525.05,59.7000153 524.487506,62.3374889 523.3625,64.5625 C522.237494,66.7875111 520.725009,68.6249927 518.825,70.075 C516.92499,71.5250073 514.750012,72.5999965 512.3,73.3 C509.849988,74.0000035 507.325013,74.35 504.725,74.35 C500.924981,74.35 497.250018,73.6875066 493.7,72.3625 C490.149982,71.0374934 487.200012,69.1500123 484.85,66.7 L493.25,58.15 C494.550006,59.750008 496.262489,61.0874946 498.3875,62.1625 C500.512511,63.2375054 502.624989,63.775 504.725,63.775 C505.675005,63.775 506.599995,63.675001 507.5,63.475 C508.400004,63.274999 509.187497,62.9500022 509.8625,62.5 C510.537503,62.0499978 511.074998,61.4500038 511.475,60.7 C511.875002,59.9499963 512.075,59.0500053 512.075,58 C512.075,56.999995 511.825002,56.1500035 511.325,55.45 C510.824997,54.7499965 510.112505,54.1125029 509.1875,53.5375 C508.262495,52.9624971 507.112507,52.4375024 505.7375,51.9625 C504.362493,51.4874976 502.800009,50.9750028 501.05,50.425 C499.349991,49.8749973 497.687508,49.2250037 496.0625,48.475 C494.437492,47.7249963 492.987506,46.7625059 491.7125,45.5875 C490.437494,44.4124941 489.412504,42.9875084 488.6375,41.3125 C487.862496,39.6374916 487.475,37.600012 487.475,35.2 C487.475,32.2499853 488.074994,29.7250105 489.275,27.625 C490.475006,25.5249895 492.04999,23.8000067 494,22.45 C495.95001,21.0999933 498.149988,20.1125031 500.6,19.4875 C503.050012,18.8624969 505.524987,18.55 508.025,18.55 C511.025015,18.55 514.087484,19.0999945 517.2125,20.2 C520.337516,21.3000055 523.074988,22.9249892 525.425,25.075 L517.25,33.7 Z" id="QWIKLABS" fill="#FFFFFF"></path>
            <path d="M59.774481,75.0934683 L59.7744474,75.0938547 C69.8112606,71.1815032 76.9230769,61.4212785 76.9230769,50 C76.9230769,35.1307952 64.8692048,23.0769231 50,23.0769231 C35.1307952,23.0769231 23.0769231,35.1307952 23.0769231,50 C23.0769231,61.4212785 30.1887394,71.1815032 40.2255526,75.0938547 L40.225519,75.0934683 C40.5700452,75.2388543 40.948713,75.3192315 41.3461538,75.3192315 C42.9174307,75.3192315 44.195283,74.0629317 44.2300428,72.5 L44.2307692,72.5 L44.2307692,50 C44.2307692,46.8137418 46.8137418,44.2307692 50,44.2307692 C53.1862582,44.2307692 55.7692308,46.8137418 55.7692308,50 L55.7692308,72.5 L55.7699572,72.5 C55.804717,74.0629317 57.0825693,75.3192315 58.6538462,75.3192315 C59.051287,75.3192315 59.4299548,75.2388543 59.774481,75.0934683 Z M63.1445338,98.2542655 C84.3820835,92.4827924 100,73.0652761 100,50 C100,22.3857625 77.6142375,0 50,0 C22.3857625,0 0,22.3857625 0,50 C0,73.0652761 15.6179165,92.4827924 36.8554662,98.2542655 C36.9225344,98.273665 36.990099,98.2918788 37.0581423,98.3088843 C37.1405409,98.3309029 37.2230233,98.3527162 37.305589,98.3743238 L37.3076967,98.3653658 C37.6805145,98.4410435 38.0663871,98.4807704 38.4615385,98.4807704 C41.6477966,98.4807704 44.2307692,95.8977978 44.2307692,92.7115396 C44.2307692,90.0399116 42.4147943,87.7924273 39.9498733,87.1361155 C23.5822832,82.7163913 11.5384615,67.7646883 11.5384615,50 C11.5384615,28.7582789 28.7582789,11.5384615 50,11.5384615 C71.2417211,11.5384615 88.4615385,28.7582789 88.4615385,50 C88.4615385,67.7646883 76.4177168,82.7163913 60.0499249,87.1352576 C57.5852057,87.7924273 55.7692308,90.0399116 55.7692308,92.7115396 C55.7692308,95.8977978 58.3522034,98.4807704 61.5384615,98.4807704 C61.9336129,98.4807704 62.3194855,98.4410435 62.6923033,98.3653658 L62.694411,98.3743238 C62.7769767,98.3527162 62.8594591,98.3309029 62.9418577,98.3088843 C63.009901,98.2918788 63.0774656,98.273665 63.1445276,98.2542672 Z" id="Combined-Shape" fill="#F5CD0E"></path>
        </g>
    </g>
</svg>